<?xml version="1.0" standalone="no"?>
<!DOCTYPE svg PUBLIC "-//W3C//DTD SVG 20010904//EN"
 "http://www.w3.org/TR/2001/REC-SVG-20010904/DTD/svg10.dtd">
<svg version="1.0" xmlns="http://www.w3.org/2000/svg"
 width="700.000000pt" height="700.000000pt" viewBox="0 0 700.000000 700.000000"
 preserveAspectRatio="xMidYMid meet">
<metadata>
Created by potrace 1.11, written by Peter Selinger 2001-2013
</metadata>
<g transform="translate(0.000000,700.000000) scale(0.100000,-0.100000)"
fill="#000000" stroke="none">
<path d="M1599 6996 c-2 -2 -29 -6 -59 -10 -30 -3 -66 -8 -80 -11 -14 -3 -50
-9 -80 -15 -219 -40 -497 -170 -705 -329 -90 -68 -252 -234 -328 -336 -180
-240 -299 -541 -335 -840 -9 -80 -9 -3820 0 -3910 4 -38 10 -81 13 -95 3 -14
10 -48 16 -77 5 -28 25 -100 44 -158 214 -659 786 -1125 1480 -1204 46 -5 884
-9 1950 -9 1943 -1 1929 -1 2110 39 116 25 279 82 387 135 260 128 452 288
658 551 59 74 166 276 215 402 35 90 81 259 91 336 3 22 8 51 12 65 10 38 12
3847 2 3910 -5 30 -11 73 -14 95 -7 49 -11 71 -24 119 -6 20 -8 36 -6 36 3 0
0 8 -5 18 -6 11 -12 30 -15 43 -14 73 -114 297 -189 421 -51 85 -148 207 -232
293 -105 107 -138 136 -226 198 -35 25 -69 50 -75 55 -22 19 -192 109 -264
140 -106 45 -245 89 -343 107 -45 8 -98 19 -117 22 -35 7 -3873 16 -3881 9z"/>
</g>
</svg>
